<svg xmlns="http://www.w3.org/2000/svg" viewBox="0 0 617.53 131.23"><defs><style>.a{fill:#248045;fill-rule:evenodd;}</style></defs><path class="a" d="M672.59,645.09a59.44,59.44,0,0,1,5.81,1.62c1.63.62,1.82,1.58.82,3-6.13,8.65-8.9,18.52-10.32,28.82a112.38,112.38,0,0,0-.49,26.56,45,45,0,0,0,2.81,13.07,24.52,24.52,0,0,0,3.32,5.77c2.24,2.79,5.32,3.61,8.84,2.82a14.13,14.13,0,0,0,8.41-6,33.53,33.53,0,0,0,4.65-9.68c2.92-9.15,3.89-18.61,4.23-28.12.26-7.42.22-14.87,0-22.3a115.48,115.48,0,0,0-2.82-23c-1.16-4.91-2.58-9.77-5.45-14a20.72,20.72,0,0,0-4.59-4.8,5.79,5.79,0,0,0-8,.76,17.4,17.4,0,0,0-2.74,3.89,33.91,33.91,0,0,0-3.15,10,58,58,0,0,0-1.3,11.54ZM644,687.56a18.49,18.49,0,0,0,.94-3.17,61.56,61.56,0,0,1,11.85-29.72,7.49,7.49,0,0,0,1.45-4.86c-.1-8,.9-15.79,4.14-23.19a28.74,28.74,0,0,1,5.77-8.76c7.65-7.77,20.71-8.76,30-2.27a30,30,0,0,1,8.59,9.56c4,6.84,6.25,14.33,7.71,22.07a144.5,144.5,0,0,1,2.3,32.23c-.37,10-1.56,19.92-5.19,29.38A42.34,42.34,0,0,1,702,724.17a30.08,30.08,0,0,1-21,9.08,38.53,38.53,0,0,1-15.07-2.34c-9.05-3.51-14.62-10.29-17.91-19.18A54.57,54.57,0,0,1,645,698.67a37.59,37.59,0,0,0-1-4.39v-6.72Z" transform="translate(-644 -608.01)"/><path class="a" d="M826.45,718a2.24,2.24,0,0,0-.68-.22c-4.9.28-9.73.92-14.1,3.3a11.51,11.51,0,0,0-3.58,3.08c-2.38,3.1-1.11,6.38,2.7,7.27a10,10,0,0,0,9.52-2.6,24.83,24.83,0,0,0,6.19-10.11,2,2,0,0,0,0-.72Zm-18.78-40.84a19.44,19.44,0,0,0,0,2.16c.28,2.53.4,5.11,1.76,7.39,1.67,2.8,4.21,3.32,6.57,1.11a16.14,16.14,0,0,0,3.35-4.32,89.18,89.18,0,0,0,4.54-10,172.84,172.84,0,0,0,8.24-32.21c.79-4.87,1.56-9.81.64-14.77a13.19,13.19,0,0,0-.84-3c-1.12-2.51-3.24-3.12-5.47-1.57a9.59,9.59,0,0,0-2.41,2.3,66.8,66.8,0,0,0-4.43,7.1,113.32,113.32,0,0,0-8.23,22.45,102.19,102.19,0,0,0-3.73,23.36Zm21.16,34.32c3.9-15.69,4.71-31.58,4.9-47.55l-.53-.12c-.23.8-.5,1.59-.69,2.4a91.16,91.16,0,0,1-6.2,18.35,35.49,35.49,0,0,1-6.64,9.92c-4,4-8.7,5.39-14.24,3.62-8.78-2.79-13.72-9-15.84-17.68a48,48,0,0,1-.28-19.54A79.09,79.09,0,0,1,801.22,631,41.62,41.62,0,0,1,812,619.51a27.38,27.38,0,0,1,16.39-5.25,20.94,20.94,0,0,1,10.31,2.79,12.63,12.63,0,0,1,6.83,11.58,7.86,7.86,0,0,1,0,1.19c-.34,1.86.26,3,2,4a11,11,0,0,1,5.62,9.92,280.91,280.91,0,0,1-1,32.83c-1.11,11.15-2.88,22.19-6.54,32.84-.15.44-.23.92-.41,1.68,6.34.86,12.58.07,19-.19a10.22,10.22,0,0,1-5.45,7.33,5.58,5.58,0,0,1-2.53.53c-4.07-.07-8.15-.13-12.22-.4a2.51,2.51,0,0,0-2.84,1.51,37.5,37.5,0,0,1-9,11.73c-6.67,5.67-14.34,7.45-22.85,5.71a16.49,16.49,0,0,1-4.22-1.64c-7-3.55-7-12.67-1.91-17a28.81,28.81,0,0,1,14.13-6.09c3.06-.52,6.19-.7,9.28-1,.71-.08,1.41-.13,2.33-.22Z" transform="translate(-644 -608.01)"/><path class="a" d="M1015.41,731.07a5.16,5.16,0,0,1-2.84,7.67,9.51,9.51,0,0,1-7.66-.74,17,17,0,0,1-6.1-5.65A37.52,37.52,0,0,1,994,722.2,84.29,84.29,0,0,1,990.25,702c-1.19-15.41.18-30.66,2.69-45.85a8.84,8.84,0,0,0,0-3.33,13.1,13.1,0,0,0-1,1.53c-7.51,15.85-13.78,32.15-17.56,49.34a117.9,117.9,0,0,0-2.82,19.43c-.12,2.34-.29,2.7-2.52,3.08a35.66,35.66,0,0,1-7.35.62,7.68,7.68,0,0,1-7.44-6.06,19.1,19.1,0,0,1-.61-5.21c.15-7.59.42-15.19.67-22.78a248.07,248.07,0,0,0-1.26-37.37,91,91,0,0,0-2.51-11.93,12.44,12.44,0,0,0-4.34-6.78,22.8,22.8,0,0,1,2.51-1.7,18.46,18.46,0,0,1,14.67-.71,9.39,9.39,0,0,1,5.82,6.29,22.31,22.31,0,0,1,.9,8.29q-.72,14.74-1.4,29.47c-.17,3.68-.26,7.36-.38,11,0,.79,0,1.58,0,2.37l.53.14c.24-.68.52-1.35.72-2,3.09-10.83,6.39-21.6,10.52-32.09A128.43,128.43,0,0,1,990.65,636a95.1,95.1,0,0,1,5.71-8,8.39,8.39,0,0,1,8.74-3.19,25.4,25.4,0,0,1,10.1,4.23,9.33,9.33,0,0,1,3.8,10.37c-1.8,7.69-3.73,15.36-5.65,23a261.15,261.15,0,0,0-5.94,29.84c-1.15,9-1.77,18-.17,27a37.87,37.87,0,0,0,3.11,10,11.42,11.42,0,0,0,1.08,1.86c1.41,1.92,2.29,1.92,4-.06Z" transform="translate(-644 -608.01)"/><path class="a" d="M918.39,655.78l-.22-.06c-.11-1.91-.16-3.83-.34-5.73a29.53,29.53,0,0,0-.7-4.49c-.4-1.56-1-3.15-2.85-3.55s-2.87.79-3.85,2a28.23,28.23,0,0,0-2.58,3.74,76.8,76.8,0,0,0-6.19,14.77,193.28,193.28,0,0,0-8.52,39.49,60.26,60.26,0,0,0-.16,15.3,15.37,15.37,0,0,0,1.94,6.36c1.6,2.5,3.79,2.78,5.68.55a19.37,19.37,0,0,0,3.14-5.06c1.61-4,3.12-8,4.33-12.16a318.55,318.55,0,0,0,7.71-34.82c1-5.42,1.74-10.86,2.61-16.3Zm12.08,0c.7.5,1.43,1,2.13,1.51a12.5,12.5,0,0,1,5.3,12.32c-1.56,13.11-2.61,26.26-2.1,39.47.2,5.11.6,10.24,2.31,15.11a22.07,22.07,0,0,0,2.7,5.3c1.46,2.06,2.29,2,4.22.44,2.09,4,0,8.13-4.52,8.9a12.47,12.47,0,0,1-9.33-2.2,21.8,21.8,0,0,1-6.59-7.5,50.66,50.66,0,0,1-5.4-14.55c-.87-4-1.52-8-2.38-12.57a18.32,18.32,0,0,0-.77,2,93.06,93.06,0,0,1-5.78,18.74,65.38,65.38,0,0,1-5,8.73,17.16,17.16,0,0,1-3.86,3.89,10.37,10.37,0,0,1-10,1.69c-5.9-1.83-10.07-5.74-13-11a38.07,38.07,0,0,1-4.4-14.34c-1.69-14,.54-27.55,5-40.81A95.87,95.87,0,0,1,888.56,650a42.54,42.54,0,0,1,10.09-11.46,23.53,23.53,0,0,1,14.91-5.09,16.9,16.9,0,0,1,16.9,16.51c.07,1.91,0,3.83,0,5.83Z" transform="translate(-644 -608.01)"/><path class="a" d="M783.79,727.5a5.85,5.85,0,0,1-1.35,6.42c-3.41,3.55-7.7,4.42-12.34,3.7-5.82-.9-9.68-4.49-11.78-9.79a39.4,39.4,0,0,1-2.24-9c-1-6.84-.46-13.72.11-20.58.79-9.65,2.75-19.13,4.27-28.67.7-4.34,1.18-8.72.34-13.12a17.1,17.1,0,0,0-.54-2.33c-1-3-2.61-4.13-5.74-4-1.73.07-3.46.36-5.31.56a13.81,13.81,0,0,0,0,1.85,135.43,135.43,0,0,1,1.36,31.55,132.62,132.62,0,0,1-5.42,31.08,78.68,78.68,0,0,1-3.29,8.22,15.21,15.21,0,0,1-2.18,3.43,6,6,0,0,1-9.4.22c-2.49-2.7-3.35-6.12-3.93-9.62A1.82,1.82,0,0,1,727,716c4-3.25,5.81-7.74,7.39-12.39a104.65,104.65,0,0,0,4.27-19.88,241,241,0,0,0,2.1-29.16c0-.79,0-1.58,0-2.49-.62-.14-1.14-.27-1.67-.37a5.41,5.41,0,0,1-4.67-5,7.43,7.43,0,0,1,.14-2.62c1.06-3.94,3.57-6.81,6.8-9.37,3.42,5.74,9.12,6.67,14.67,7.85a37.58,37.58,0,0,0,4.51.59A14.61,14.61,0,0,1,773,651.64a31.88,31.88,0,0,1,3.37,14.11c.07,6.15-.31,12.3-.46,18.45s-.41,12.31-.36,18.46a82.23,82.23,0,0,0,1.83,18.57,32.55,32.55,0,0,0,1.81,5.45c1.17,2.7,2.43,2.9,4.65.82Z" transform="translate(-644 -608.01)"/><path class="a" d="M1106.71,662.59c.15-1.77.36-3.11.35-4.45,0-3.27,0-6.54-.28-9.79a9.56,9.56,0,0,0-1.44-4c-1.85-3.09-5.06-3.34-7.25-.49a29.38,29.38,0,0,0-3.36,5.77,90.46,90.46,0,0,0-5.86,19.71,168,168,0,0,0-2.84,42,47.48,47.48,0,0,0,2.29,12.94,24.25,24.25,0,0,0,2.17,4.78c2.24,3.64,5.49,4.93,9.66,4.05a12.61,12.61,0,0,0,7.63-5c3-4,4.54-8.59,5.75-13.33a110.76,110.76,0,0,0,2.93-19.16c.24-3.19.39-6.38.6-9.57.07-1,.22-2,.37-3.37a19.68,19.68,0,0,1,2.67.5,9.15,9.15,0,0,1,6.61,8.56,78.2,78.2,0,0,1-.47,11.94,52.42,52.42,0,0,1-4.31,16.63,39.33,39.33,0,0,1-3.61,6.47c-6.27,8.82-15,12.32-25.62,11.29-9.58-.94-16.27-6.06-20.76-14.34a52,52,0,0,1-5.38-17.3c-2.58-17.45.09-34.24,6.62-50.49A46.62,46.62,0,0,1,1081.6,642a24.84,24.84,0,0,1,14.69-8.38c12.45-2.09,24,8.93,22.31,21.38a7,7,0,0,1-2.23,4.4c-2.63,2.36-5.81,3.1-9.66,3.18Z" transform="translate(-644 -608.01)"/><path class="a" d="M1242.43,662.85c.34-2.48.71-4.83,1-7.18a28.68,28.68,0,0,0-.24-9.78,9.68,9.68,0,0,0-1-2.67c-1.7-2.91-4.61-3-6.53-.26-2.06,2.95-2.56,6.33-2.47,9.82a23.21,23.21,0,0,0,4.15,12.83c2.27,3.28,4.77,6.41,7.16,9.61,3.26,4.35,6.65,8.61,9.74,13.08a40.77,40.77,0,0,1,6.68,15.27,31.94,31.94,0,0,1-2.3,19.91,22.56,22.56,0,0,1-15.26,12.84,37.83,37.83,0,0,1-19.45.17c-9.24-2.34-14.82-8.68-16.12-18.1a18.51,18.51,0,0,1,11.61-19.51,11,11,0,0,1,1.37-.45c1.51-.35,2.17.13,2,1.67-.14,1.75-.51,3.48-.7,5.22a46.87,46.87,0,0,0,.23,14.09,16.54,16.54,0,0,0,3.65,8c4.66,5.25,11.41,4.4,14.45-1.94,2.57-5.36,2.55-11,1-16.62a39.55,39.55,0,0,0-7-13.82c-1.85-2.4-3.8-4.74-5.62-7.17a47.55,47.55,0,0,1-9.52-29.58,32.25,32.25,0,0,1,2.73-13.53c3-6.45,8-10.28,15.08-11.2,9-1.18,16.46,5.2,17.31,14.61a52,52,0,0,1,.09,6,7.93,7.93,0,0,1-4.72,7.24,13.75,13.75,0,0,1-7.34,1.48Z" transform="translate(-644 -608.01)"/><path class="a" d="M1162.4,663.06c1.74.43,3.17.66,4.5,1.14,1.6.58,1.8,1.3.81,2.72a48.53,48.53,0,0,0-7,16.69c-1.92,7.93-2.16,16-1.77,24.06a87.57,87.57,0,0,0,1.47,11.14,16.9,16.9,0,0,0,3.09,7.21,7.12,7.12,0,0,0,7.1,3,10.2,10.2,0,0,0,6-3.19,21.45,21.45,0,0,0,4.51-7.57c2.48-6.57,3.35-13.46,3.88-20.4a177.45,177.45,0,0,0,0-26.59,87.34,87.34,0,0,0-2.49-16.08c-1.06-4-2.4-7.8-5-11.05-3.94-4.86-8.46-4.45-11.28,1.15s-3.33,11.58-3.85,17.74Zm35.9,20.23c-.16,11.56-.77,20.15-3.4,28.47a37.42,37.42,0,0,1-6.57,12.7c-5.23,6.37-11.9,9.82-20.24,9.59a39.47,39.47,0,0,1-7.36-.79c-8-1.75-13.57-6.53-16.93-13.91a46.34,46.34,0,0,1-3.63-23.44,48.94,48.94,0,0,1,9.7-25.18A5.71,5.71,0,0,0,1151,667a44.49,44.49,0,0,1,2.35-16.27,34.73,34.73,0,0,1,2.47-5.45c6.92-12.18,21.42-11.25,28.73-4.92a28.08,28.08,0,0,1,6.54,8.5,56.13,56.13,0,0,1,5.59,18.5c.86,6.24,1.25,12.55,1.58,16Z" transform="translate(-644 -608.01)"/><path class="a" d="M1054.19,733.08c.17,2.48-.54,3.71-2.6,4.28a7.28,7.28,0,0,1-7.89-2.11,36.46,36.46,0,0,1-4.6-6.67c-2.71-5-4.11-10.54-5.22-16.12-2.52-12.68-3.08-25.51-2.87-38.4a292,292,0,0,1,2.5-32.48c.48-3.75,1-4.05,4.79-3.54a28.36,28.36,0,0,1,9.22,3.22,9.35,9.35,0,0,1,5.28,8.75c0,2.3-.32,4.61-.52,6.92-1,12.09-2.26,24.18-3.09,36.28a163.94,163.94,0,0,0-.09,26.59,87,87,0,0,0,1.84,10.1c.37,1.7,1.27,3.1,3.25,3.18Z" transform="translate(-644 -608.01)"/><path class="a" d="M912.1,618.59c-2.32,1.3-4.53,2.77-6.92,3.83a30.74,30.74,0,0,1-6.39,1.91,7.45,7.45,0,0,1-3.53-.26c-2.78-.84-3.39-3.72-1.18-5.58a37.16,37.16,0,0,1,4.37-3q4.66-2.92,9.38-5.77c.89-.53,1.87-.89,2.8-1.36a3.79,3.79,0,0,1,3.87.29c1.1.65,2.19,1.33,3.23,2.06,3.72,2.63,7.42,5.29,11.12,7.93l.2.14c1.92,1.43,2.52,2.85,1.85,4.44s-2.46,2.44-4.62,2.21c-4.71-.5-8.63-2.74-12.28-5.56-.51-.38-1-.79-1.51-1.17a1.53,1.53,0,0,0-.39-.16Z" transform="translate(-644 -608.01)"/><path class="a" d="M1046.54,621.24a15.43,15.43,0,0,1-7.84-1.85,8.53,8.53,0,0,1-1.21-.77c-3.62-2.68-3.33-6.11.81-7.9a15.48,15.48,0,0,1,14.71,1,7.48,7.48,0,0,1,1.65,1.37,3.92,3.92,0,0,1-.6,6.22,12.67,12.67,0,0,1-7.52,2Z" transform="translate(-644 -608.01)"/></svg>